<svg viewBox="0 0 24 24" xmlns="http://www.w3.org/2000/svg"><path d="M6 7C6.5304 7 7.039 7.21086 7.4141 7.58594C7.7891 7.96101 8 8.46957 8 9V15C8 15.5304 7.7891 16.039 7.4141 16.4141C7.039 16.7891 6.5304 17 6 17H4C3.46957 17 2.96101 16.7891 2.58594 16.4141C2.21086 16.039 2 15.5304 2 15V9C2 8.46957 2.21086 7.96101 2.58594 7.58594C2.96101 7.21086 3.46957 7 4 7H6ZM4 9V15H6V9H4Z M12 17H14V7H10V9H12V17Z M16 7V9H20V11H18C17.4696 11 16.9609 11.2107 16.5858 11.5858C16.2107 11.9609 16 12.4696 16 13V17H18H22V15H18V13H20C20.5304 13 21.0391 12.7893 21.4142 12.4142C21.7893 12.0391 22 11.5304 22 11V9C22 8.46957 21.7893 7.96086 21.4142 7.58579C21.0391 7.21071 20.5304 7 20 7H16Z"/></svg>